Nederlands gesproken,
In een dolle bui verklappen Timon en Pumbaa een aantal geheimpjes waarmee de leeuwenkoning niet blij zou zijn. Ze vertellen ondermeer wat er écht gebeurde toen Mufasa zijn zoon aan het volk voorstelde en het tweetal kan bovendien niet nalaten om op te scheppen over het belang van hun 'hakuna matata'-filosofie.

Dutch spoken,
Timon the meerkat and Pumbaa the warthog retell the story of The Lion King, from their own unique perspective. 

------------------ Dutch Friends ------------------
You can find my Friends at: http://www.Film-Test.nl 
------ They got my dutch subs ----- and more ------

General:

Complete name                    : The Lion King 3\The Lion King 3.avi
Format                           : AVI
Format/Info                      : Audio Video Interleave
File size                        : 1.03 GiB
Duration                         : 1h 13mn
Overall bit rate                 : 2 015 Kbps

Video:

Format                           : MPEG-4 Visual
Format profile                   : Simple@L3
Format settings, BVOP            : No
Format settings, QPel            : No
Format settings, GMC             : No warppoints
Format settings, Matrix          : Default (H.263)
Codec ID                         : XVID
Codec ID/Hint                    : XviD
Duration                         : 1h 13mn
Bit rate                         : 1 620 Kbps
Width                            : 704 pixels
Height                           : 424 pixels
Display aspect ratio             : 1.660
Frame rate                       : 25.000 fps
Color space                      : YUV
Chroma subsampling               : 4:2:0
Bit depth                        : 8 bits
Scan type                        : Progressive
Compression mode                 : Lossy
Bits/(Pixel*Frame)               : 0.217
Stream size                      : 848 MiB (80%)
Writing library                  : XviD 1.1.2 (UTC 2006-11-01)

Audio:

Format                           : AC-3
Format/Info                      : Audio Coding 3
Mode extension                   : CM (complete main)
Codec ID                         : 2000
Duration                         : 1h 13mn
Bit rate mode                    : Constant
Bit rate                         : 384 Kbps
Channel(s)                       : 6 channels
Channel positions                : Front: L C R, Side: L R, LFE
Sampling rate                    : 48.0 KHz
Bit depth                        : 16 bits
Compression mode                 : Lossy
Stream size                      : 201 MiB (19%)
Alignment                        : Aligned on interleaves
Interleave, duration             : 32 ms (0.80 video frame)

